<svg xmlns="http://www.w3.org/2000/svg" xmlns:xlink="http://www.w3.org/1999/xlink" viewBox="0 0 100 150"><defs><style>.cls-1{isolation:isolate;}.cls-2{fill:#fff;}.cls-3{fill:#00ff8b;}.cls-4{fill:none;}.cls-5{opacity:0.93;}.cls-6{fill:url(#未命名漸層_5);}.cls-7{fill:url(#未命名漸層_5-2);}.cls-8{opacity:0.95;mix-blend-mode:multiply;}.cls-9{fill:#3e3a39;}</style><linearGradient id="未命名漸層_5" x1="41.44" y1="42.55" x2="66.68" y2="42.55" gradientUnits="userSpaceOnUse"><stop offset="0.16" stop-color="#00ff8b"/><stop offset="1" stop-color="#eeeeef"/></linearGradient><linearGradient id="未命名漸層_5-2" x1="54.39" y1="54.31" x2="93.1" y2="54.31" xlink:href="#未命名漸層_5"/></defs><title>LOGO-8</title><g class="cls-1"><g id="圖層_1" data-name="圖層 1"><path class="cls-2" d="M76.87,71a.46.46,0,0,1,.2,0c-.07.06-.14,0-.2,0S76.85,71.05,76.87,71Z"/><path class="cls-3" d="M36.87,108a2.27,2.27,0,0,0-2.17,2.15,2.2,2.2,0,1,0,4.39.08A2.28,2.28,0,0,0,36.87,108Z"/><path class="cls-4" d="M36.89,68c-16.15,0-23.77,2.91-24.08,4.07.31,1.12,7.93,4,24.08,4s23.69-2.88,24.07-4C60.58,70.89,53,68,36.89,68Z"/><path class="cls-4" d="M53.42,94.67c-4.07-3.12-8.56-3-12.13.88a14.25,14.25,0,0,0-3.94,8.69c-.05.58-.22,1.09-.91,1.17a1.16,1.16,0,0,1-1.34-.86c-.06-.17-.13-.35-.18-.52a9.45,9.45,0,0,1,.84-7.28,5.36,5.36,0,0,0-.42-6.08,5.66,5.66,0,0,0-5.58-2.3,14.26,14.26,0,0,0-7.54,3.45c-4.71,4.11-4.62,10.27.25,14.17a14.25,14.25,0,0,0,7.93,3.34c.6,0,1.19.18,1.27.94a1.26,1.26,0,0,1-1,1.38c-.13,0-.28.07-.42.11a9.55,9.55,0,0,1-7.28-.85,5.61,5.61,0,0,0-8.34,5.38,12.42,12.42,0,0,0,5.62,10c4,2.63,8.15,2.07,11.36-1.39a14.24,14.24,0,0,0,4-8.67c.06-.63.22-1.18,1-1.26a1.2,1.2,0,0,1,1.31.92c.06.17.12.35.17.52a9.94,9.94,0,0,1-.89,7.39c-1.94,4,.77,8.24,5.9,8.25a13.31,13.31,0,0,0,7.87-3.66c3.4-3.16,5.39-9.13-.22-13.8a14.69,14.69,0,0,0-8.2-3.54c-.58,0-1.1-.17-1.21-.85a1.18,1.18,0,0,1,.83-1.37,6.45,6.45,0,0,1,.62-.21,10.08,10.08,0,0,1,7.39.93,5.61,5.61,0,0,0,8.21-5.28A12.32,12.32,0,0,0,53.42,94.67Z"/><path class="cls-3" d="M32.06,83.48h.21a2,2,0,0,0,.58-.07,1.08,1.08,0,0,0,.44-.22.87.87,0,0,0,.31-.43,1.89,1.89,0,0,0,.1-.67,1.86,1.86,0,0,0-.1-.67.89.89,0,0,0-.31-.42,1.19,1.19,0,0,0-.44-.21,2.46,2.46,0,0,0-.58-.06h-.21a.05.05,0,0,0-.06.06v2.63A.05.05,0,0,0,32.06,83.48Z"/><path class="cls-3" d="M63.4,71.66v0h0c-.33-1.94-3.08-3.42-8.35-4.52a93.66,93.66,0,0,0-18.15-1.57,93.66,93.66,0,0,0-18.15,1.57c-5.64,1.18-8.39,2.79-8.39,4.94h0v65.32c0,2.92,11.88,5.28,26.52,5.28s26.53-2.36,26.53-5.28V72.46a2.69,2.69,0,0,0,0-.4A2.6,2.6,0,0,0,63.4,71.66ZM50.11,109.58a10.08,10.08,0,0,0-7.39-.93,6.45,6.45,0,0,0-.62.21,1.18,1.18,0,0,0-.83,1.37c.11.68.63.8,1.21.85a14.69,14.69,0,0,1,8.2,3.54c5.61,4.67,3.62,10.64.22,13.8A13.31,13.31,0,0,1,43,132.08c-5.13,0-7.84-4.22-5.9-8.25a9.94,9.94,0,0,0,.89-7.39c-.05-.17-.11-.35-.17-.52a1.2,1.2,0,0,0-1.31-.92c-.74.08-.9.63-1,1.26a14.24,14.24,0,0,1-4,8.67c-3.21,3.46-7.4,4-11.36,1.39a12.42,12.42,0,0,1-5.62-10A5.61,5.61,0,0,1,23,110.91a9.55,9.55,0,0,0,7.28.85c.14,0,.29-.06.42-.11a1.26,1.26,0,0,0,1-1.38c-.08-.76-.67-.9-1.27-.94A14.25,14.25,0,0,1,22.47,106c-4.87-3.9-5-10.06-.25-14.17a14.26,14.26,0,0,1,7.54-3.45,5.66,5.66,0,0,1,5.58,2.3,5.36,5.36,0,0,1,.42,6.08,9.45,9.45,0,0,0-.84,7.28c0,.17.12.35.18.52a1.16,1.16,0,0,0,1.34.86c.69-.08.86-.59.91-1.17a14.25,14.25,0,0,1,3.94-8.69c3.57-3.89,8.06-4,12.13-.88a12.32,12.32,0,0,1,4.9,9.63A5.61,5.61,0,0,1,50.11,109.58ZM31,83.83V80.39A.49.49,0,0,1,31.1,80a.46.46,0,0,1,.35-.14h.87a4,4,0,0,1,1,.12,2.43,2.43,0,0,1,.77.39,1.78,1.78,0,0,1,.51.69,2.75,2.75,0,0,1,.17,1,2.59,2.59,0,0,1-.17,1,1.72,1.72,0,0,1-.5.7,2.23,2.23,0,0,1-.76.41,3.32,3.32,0,0,1-1,.13h-.93a.5.5,0,0,1-.35-.14A.49.49,0,0,1,31,83.83Zm4.95,1.33a.2.2,0,0,1,0-.07l1.16-5.24a.38.38,0,0,1,.15-.24.45.45,0,0,1,.27-.1.25.25,0,0,1,.21.11.22.22,0,0,1,.07.17.13.13,0,0,1,0,.06L36.6,85.09a.42.42,0,0,1-.42.34.24.24,0,0,1-.21-.1A.23.23,0,0,1,35.9,85.16ZM41.74,83l-.09-.11-.17-.1-.21-.08L41,82.62l-.05,0-.59-.19a2.64,2.64,0,0,1-.38-.18,2,2,0,0,1-.34-.26,1.31,1.31,0,0,1-.24-.37,1.13,1.13,0,0,1-.09-.45,1.14,1.14,0,0,1,.49-1,1.94,1.94,0,0,1,1.25-.38A2.91,2.91,0,0,1,42,80a2.2,2.2,0,0,1,.77.45l-.54.69a2,2,0,0,0-1.16-.39,1.09,1.09,0,0,0-.47.09.32.32,0,0,0-.18.29.18.18,0,0,0,0,.1.22.22,0,0,0,.08.09l.11.08.16.07.17.06.2.06.1,0,.58.2a1.66,1.66,0,0,1,.76.46,1.16,1.16,0,0,1,.28.78,1.2,1.2,0,0,1-.5,1,2.16,2.16,0,0,1-1.33.38,3.2,3.2,0,0,1-1-.16,2.48,2.48,0,0,1-.87-.49l.59-.74a2.59,2.59,0,0,0,.64.35,1.94,1.94,0,0,0,.68.13,1.29,1.29,0,0,0,.51-.09.27.27,0,0,0,.21-.27A.24.24,0,0,0,41.74,83Zm-4.85-6.88c-16.15,0-23.77-2.91-24.08-4C13.12,70.92,20.74,68,36.89,68s23.69,2.88,24.07,4C60.58,73.23,53,76.11,36.89,76.11Z"/><g class="cls-5"><path class="cls-6" d="M66.32,37.21a15.88,15.88,0,0,1-5,7.62C59,47,56.11,48.63,54,51c-.14.16-.27.32-.4.49-5.18,7-3.69,10.64-3.69,10.65-1-2.5-2.64-4.86-3.78-7.33A52.19,52.19,0,0,1,42,43c-1.06-5.41-.72-12.15,3.54-16.15A14.62,14.62,0,0,1,53.81,23a11.67,11.67,0,0,1,3.82.21c5.59,1.3,9.9,7.19,8.91,13C66.48,36.53,66.4,36.88,66.32,37.21Z"/></g><g class="cls-5"><path class="cls-7" d="M84,66.21a15.89,15.89,0,0,1-9-1.22c-2.94-1.19-5.68-3.08-8.73-3.94l-.62-.14c-8.58-1.65-11.2,1.25-11.2,1.25,1.81-2,3.25-4.47,5-6.57a52.56,52.56,0,0,1,8.83-8.87c4.44-3.29,10.66-5.88,16.1-3.76a14.67,14.67,0,0,1,7.08,5.85,11.62,11.62,0,0,1,1.46,3.53c1.23,5.6-2.22,12-7.86,13.62C84.65,66.06,84.3,66.14,84,66.21Z"/></g><g class="cls-8"><path class="cls-9" d="M36.26,106.81a2.2,2.2,0,0,0-2.12,2.08,2.14,2.14,0,1,0,4.27.08A2.21,2.21,0,0,0,36.26,106.81Z"/><path class="cls-9" d="M31.58,83h.21a2.26,2.26,0,0,0,.55-.06,1.19,1.19,0,0,0,.44-.21.86.86,0,0,0,.29-.42,1.83,1.83,0,0,0,.1-.66,1.78,1.78,0,0,0-.1-.65.83.83,0,0,0-.29-.41,1.35,1.35,0,0,0-.44-.2,2.2,2.2,0,0,0-.55-.06h-.21a.05.05,0,0,0-.06.06v2.56S31.54,83,31.58,83Z"/><path class="cls-9" d="M62,71.49v0h0c-.33-1.88-3-3.32-8.12-4.39a90.3,90.3,0,0,0-17.64-1.53,90.19,90.19,0,0,0-17.63,1.53c-5.49,1.14-8.16,2.71-8.16,4.8h0v63.47c0,2.84,11.54,5.14,25.78,5.14S62,138.19,62,135.35V72.26a2.34,2.34,0,0,0,0-.38A2.38,2.38,0,0,0,62,71.49ZM49.12,108.33a9.88,9.88,0,0,0-7.18-.9,6.08,6.08,0,0,0-.6.21,1.15,1.15,0,0,0-.81,1.33c.1.66.61.78,1.18.83a14.19,14.19,0,0,1,8,3.44c5.46,4.54,3.52,10.33.22,13.41a13,13,0,0,1-7.65,3.55c-5,0-7.62-4.09-5.74-8a9.66,9.66,0,0,0,.87-7.19c0-.16-.11-.33-.17-.5a1.14,1.14,0,0,0-1.27-.89c-.72.07-.87.61-.93,1.22a13.91,13.91,0,0,1-3.86,8.43c-3.12,3.36-7.19,3.9-11,1.34a12.08,12.08,0,0,1-5.46-9.74,5.46,5.46,0,0,1,8.11-5.23,9.29,9.29,0,0,0,7.07.83c.14,0,.28-.06.41-.11a1.22,1.22,0,0,0,1-1.34c-.08-.74-.65-.88-1.23-.92a13.81,13.81,0,0,1-7.71-3.24c-4.73-3.79-4.82-9.78-.25-13.77a14,14,0,0,1,7.33-3.36A5.54,5.54,0,0,1,34.77,90a5.22,5.22,0,0,1,.41,5.91,9.17,9.17,0,0,0-.82,7.08c0,.16.11.33.17.5a1.15,1.15,0,0,0,1.31.84c.67-.08.83-.58.88-1.14a13.9,13.9,0,0,1,3.83-8.45c3.47-3.78,7.83-3.88,11.79-.85a12,12,0,0,1,4.76,9.36A5.44,5.44,0,0,1,49.12,108.33Zm-18.62-25V80a.48.48,0,0,1,.14-.34.47.47,0,0,1,.35-.15h.84a3.35,3.35,0,0,1,1,.13,2,2,0,0,1,.75.37,1.67,1.67,0,0,1,.49.67,2.43,2.43,0,0,1,.18,1,2.63,2.63,0,0,1-.17,1,1.84,1.84,0,0,1-.49.69,2.27,2.27,0,0,1-.74.39,3.12,3.12,0,0,1-1,.13H31a.46.46,0,0,1-.35-.14A.5.5,0,0,1,30.5,83.31Zm4.81,1.3s0,0,0-.07l1.13-5.09a.4.4,0,0,1,.14-.24.43.43,0,0,1,.26-.09.24.24,0,0,1,.21.1.28.28,0,0,1,.07.17.35.35,0,0,0,0,.06L36,84.54a.38.38,0,0,1-.15.24.39.39,0,0,1-.26.09.23.23,0,0,1-.2-.1A.21.21,0,0,1,35.31,84.61ZM41,82.5a.53.53,0,0,0-.09-.11.65.65,0,0,0-.17-.09l-.2-.08-.24-.08,0,0-.57-.19a1.63,1.63,0,0,1-.38-.17A1.92,1.92,0,0,1,39,81.5a.85.85,0,0,1-.24-.35,1.12,1.12,0,0,1-.09-.44,1.14,1.14,0,0,1,.48-.93,2,2,0,0,1,1.21-.37,2.64,2.64,0,0,1,.89.15A2.3,2.3,0,0,1,42,80l-.53.67a2,2,0,0,0-1.13-.38,1,1,0,0,0-.45.09.3.3,0,0,0-.18.28.36.36,0,0,0,0,.1.32.32,0,0,0,.08.09l.11.07.15.07.17.06.2.06.09,0,.57.19a1.68,1.68,0,0,1,.73.45,1.1,1.1,0,0,1,.27.76,1.16,1.16,0,0,1-.48,1,2.09,2.09,0,0,1-1.3.37,3,3,0,0,1-1-.16,2.61,2.61,0,0,1-.85-.47l.59-.72a2.09,2.09,0,0,0,.61.33,1.91,1.91,0,0,0,.66.14,1.24,1.24,0,0,0,.5-.09.28.28,0,0,0,.2-.26A.23.23,0,0,0,41,82.5Zm-4.72-6.69c-15.69,0-23.1-2.83-23.4-3.92.3-1.12,7.71-4,23.4-4s23,2.8,23.4,3.94C59.29,73,51.88,75.81,36.27,75.81Z"/></g></g></g></svg>