<svg xmlns="http://www.w3.org/2000/svg" xmlns:xlink="http://www.w3.org/1999/xlink" viewBox="0 0 260 240"><defs><style>.cls-1,.cls-6{fill:none;}.cls-2,.cls-3,.cls-6{stroke:#000;stroke-miterlimit:10;stroke-width:0.25px;}.cls-2{fill:url(#未命名漸層_7);}.cls-3{font-size:30px;fill:#00ff8b;font-family:FuturaBT-BoldCondensed, Futura BdCn BT;font-weight:700;}.cls-4{isolation:isolate;}.cls-5{clip-path:url(#clip-path);}.cls-7{clip-path:url(#clip-path-2);}.cls-8{clip-path:url(#clip-path-3);}.cls-9{clip-path:url(#clip-path-4);}.cls-10{clip-path:url(#clip-path-5);}.cls-11{clip-path:url(#clip-path-6);}</style><radialGradient id="未命名漸層_7" cx="30.77" cy="66.45" r="259.63" gradientUnits="userSpaceOnUse"><stop offset="0.16" stop-color="#00ff8b"/><stop offset="1" stop-color="#eeeeef"/></radialGradient><clipPath id="clip-path"><polygon id="SVGID" class="cls-1" points="148.94 53.66 148.22 181.34 22 192.38 22.72 64.7 148.94 53.66"/></clipPath><clipPath id="clip-path-2"><polygon id="SVGID-2" data-name="SVGID" class="cls-1" points="238 87.61 237.28 215.29 111.05 226.33 111.77 98.65 238 87.61"/></clipPath><clipPath id="clip-path-3"><polygon id="SVGID-3" data-name="SVGID" class="cls-1" points="238 87.61 237.28 215.29 148.22 181.34 148.94 53.66 238 87.61"/></clipPath><clipPath id="clip-path-4"><polygon id="SVGID-4" data-name="SVGID" class="cls-1" points="237.28 215.29 111.05 226.33 22 192.38 148.22 181.34 237.28 215.29"/></clipPath><clipPath id="clip-path-5"><polygon id="SVGID-5" data-name="SVGID" class="cls-1" points="111.05 226.33 22 192.38 22.72 64.7 111.77 98.65 111.05 226.33"/></clipPath><clipPath id="clip-path-6"><polygon id="SVGID-6" data-name="SVGID" class="cls-1" points="111.77 98.65 22.72 64.7 148.94 53.66 238 87.61 111.77 98.65"/></clipPath></defs><title>cover photo</title><g id="圖層_1" data-name="圖層 1"><path class="cls-2" d="M95.22,114.17v20.64l-25.6,14.35,25.6,14.45v20.45L47.71,157.69V140.44Z"/><path class="cls-2" d="M144.17,105.73H158L118.09,203H104.33Z"/><path class="cls-2" d="M167.93,184.06V163.41l25.49-14.34-25.49-14.45V114.17l47.5,26.27v17.35Z"/><text class="cls-3" transform="translate(47.74 101.69)">WEB </text></g><g id="圖層_4" data-name="圖層 4"><g class="cls-4"><g class="cls-4"><g class="cls-5"><polygon class="cls-6" points="148.94 53.66 148.22 181.34 22 192.38 22.72 64.7 148.94 53.66"/></g></g><g class="cls-4"><g class="cls-7"><polygon class="cls-6" points="238 87.61 237.28 215.29 111.05 226.33 111.77 98.65 238 87.61"/></g></g><g class="cls-4"><g class="cls-8"><polygon class="cls-6" points="238 87.61 237.28 215.29 148.22 181.34 148.94 53.66 238 87.61"/></g></g><g class="cls-4"><g class="cls-9"><polygon class="cls-6" points="237.28 215.29 111.05 226.33 22 192.38 148.22 181.34 237.28 215.29"/></g></g><g class="cls-4"><g class="cls-10"><polygon class="cls-6" points="111.05 226.33 22 192.38 22.72 64.7 111.77 98.65 111.05 226.33"/></g></g><g class="cls-4"><g class="cls-11"><polygon class="cls-6" points="111.77 98.65 22.72 64.7 148.94 53.66 238 87.61 111.77 98.65"/></g></g></g></g></svg>