<svg xmlns="http://www.w3.org/2000/svg" xmlns:xlink="http://www.w3.org/1999/xlink" viewBox="0 0 260 240"><defs><style>.cls-1,.cls-10{fill:none;}.cls-2{clip-path:url(#clip-path);}.cls-10,.cls-3,.cls-4,.cls-5,.cls-6,.cls-7{stroke:#000;stroke-miterlimit:10;stroke-width:0.25px;}.cls-3{fill:url(#未命名漸層_7);}.cls-4{fill:url(#未命名漸層_7-2);}.cls-5{fill:url(#未命名漸層_7-3);}.cls-6{fill:url(#未命名漸層_7-4);}.cls-7{font-size:30px;fill:#00ff8b;font-family:FuturaBT-BoldCondensed, Futura BdCn BT;font-weight:700;}.cls-8{isolation:isolate;}.cls-9{clip-path:url(#clip-path-2);}.cls-11{clip-path:url(#clip-path-3);}.cls-12{clip-path:url(#clip-path-4);}.cls-13{clip-path:url(#clip-path-5);}.cls-14{clip-path:url(#clip-path-6);}.cls-15{clip-path:url(#clip-path-7);}</style><clipPath id="clip-path"><polygon class="cls-1" points="204.19 219.25 56.06 206.29 56.06 105.13 204.19 118.09 204.19 219.25"/></clipPath><radialGradient id="未命名漸層_7" cx="130.13" cy="140.25" r="63.42" gradientTransform="matrix(1, 0.06, 0, 0.65, 0, 64)" gradientUnits="userSpaceOnUse"><stop offset="0.16" stop-color="#00ff8b"/><stop offset="1" stop-color="#eeeeef"/></radialGradient><radialGradient id="未命名漸層_7-2" cx="119.23" cy="139.73" r="70.13" gradientTransform="matrix(0.79, 0.07, 0, 0.92, 35.86, 3.4)" xlink:href="#未命名漸層_7"/><radialGradient id="未命名漸層_7-3" cx="131.9" cy="173.91" r="65.32" gradientTransform="matrix(0.82, 0.07, 0, 0.88, 21.59, 5.52)" xlink:href="#未命名漸層_7"/><radialGradient id="未命名漸層_7-4" cx="129.74" cy="127.06" r="11.23" gradientTransform="matrix(0.66, 0.75, -0.69, 0.72, 131.73, -62.9)" xlink:href="#未命名漸層_7"/><clipPath id="clip-path-2"><polygon id="SVGID" class="cls-1" points="148.95 53.66 148.23 181.34 22 192.38 22.72 64.7 148.95 53.66"/></clipPath><clipPath id="clip-path-3"><polygon id="SVGID-2" data-name="SVGID" class="cls-1" points="238 87.61 237.28 215.29 111.06 226.33 111.78 98.65 238 87.61"/></clipPath><clipPath id="clip-path-4"><polygon id="SVGID-3" data-name="SVGID" class="cls-1" points="238 87.61 237.28 215.29 148.23 181.34 148.95 53.66 238 87.61"/></clipPath><clipPath id="clip-path-5"><polygon id="SVGID-4" data-name="SVGID" class="cls-1" points="237.28 215.29 111.06 226.33 22 192.38 148.23 181.34 237.28 215.29"/></clipPath><clipPath id="clip-path-6"><polygon id="SVGID-5" data-name="SVGID" class="cls-1" points="111.06 226.33 22 192.38 22.72 64.7 111.78 98.65 111.06 226.33"/></clipPath><clipPath id="clip-path-7"><polygon id="SVGID-6" data-name="SVGID" class="cls-1" points="111.78 98.65 22.72 64.7 148.95 53.66 238 87.61 111.78 98.65"/></clipPath></defs><title>cover photo</title><g id="圖層_1" data-name="圖層 1"><g class="cls-2"><polygon class="cls-3" points="204.19 199.25 56.06 190.85 56.06 125.29 204.19 133.69 204.19 199.25"/><path class="cls-4" d="M57,166.76c3.27-2.09,24.58-42.59,30.73-42.06s-1.23-15.34,13.52,9.28,10.24,24.22,17.21,28.64,5.73,11,11.88,2.46,23.77-35.52,28.68-42.23,3.69-17.29,7.38-8.88-.41,3.3,4.09,12.26,5.33-4.29,8.61,11.7-6.56,10.85,5.74,22.4,17.2,15.31,19.25,16.92"/><path class="cls-5" d="M57.35,165.52c8.94-13.25,14.47-33.14,17-22.5s-5.1,10.41,7.24,15.57,8.08.71,13.61,6.17,9.36-9.14,19.57-14.59,3.41-10.11,14.89-2.31,3,3.88,14.47,13.48,3-10.6,23.83,12.5,16.59,23.18,25.1,21.21-.43-2.3,10.21-1.37"/><ellipse class="cls-6" cx="129.74" cy="126.8" rx="10.75" ry="11.73" transform="translate(-51.67 124.92) rotate(-43.75)"/></g><text class="cls-7" transform="translate(47.74 101.69)">GRAPHIC</text></g><g id="圖層_4" data-name="圖層 4"><g class="cls-8"><g class="cls-8"><g class="cls-9"><polygon class="cls-10" points="148.95 53.66 148.23 181.34 22 192.38 22.72 64.7 148.95 53.66"/></g></g><g class="cls-8"><g class="cls-11"><polygon class="cls-10" points="238 87.61 237.28 215.29 111.06 226.33 111.78 98.65 238 87.61"/></g></g><g class="cls-8"><g class="cls-12"><polygon class="cls-10" points="238 87.61 237.28 215.29 148.23 181.34 148.95 53.66 238 87.61"/></g></g><g class="cls-8"><g class="cls-13"><polygon class="cls-10" points="237.28 215.29 111.06 226.33 22 192.38 148.23 181.34 237.28 215.29"/></g></g><g class="cls-8"><g class="cls-14"><polygon class="cls-10" points="111.06 226.33 22 192.38 22.72 64.7 111.78 98.65 111.06 226.33"/></g></g><g class="cls-8"><g class="cls-15"><polygon class="cls-10" points="111.78 98.65 22.72 64.7 148.95 53.66 238 87.61 111.78 98.65"/></g></g></g></g></svg>