<?xml version="1.0" encoding="utf-8"?>
<!-- Generator: Adobe Illustrator 23.0.4, SVG Export Plug-In . SVG Version: 6.00 Build 0)  -->
<svg version="1.1" xmlns="http://www.w3.org/2000/svg" xmlns:xlink="http://www.w3.org/1999/xlink" x="0px" y="0px"
	 viewBox="0 0 198.835 130.058" enable-background="new 0 0 198.835 130.058" xml:space="preserve">
<g id="bg">
</g>
<g id="圖層_1">
	<g>
		<path fill="#00FF8B" stroke="#000000" stroke-width="0.25" stroke-miterlimit="10" d="M71.126,66.158
			c-1.236,0.013-2.323,1.085-2.359,2.326c-0.038,1.328,1.001,2.409,2.336,2.429c1.337,0.02,2.416-1.026,2.422-2.346
			C73.53,67.282,72.397,66.145,71.126,66.158z"/>
		<path fill="none" stroke="#000000" stroke-width="0.25" stroke-miterlimit="10" d="M71.145,22.826
			c-17.495,0-25.751,3.154-26.089,4.408c0.337,1.214,8.593,4.367,26.089,4.367c17.401,0,25.662-3.12,26.083-4.388
			C96.806,25.945,88.545,22.826,71.145,22.826z"/>
		<path fill="none" stroke="#000000" stroke-width="0.25" stroke-miterlimit="10" d="M89.055,51.713
			c-4.411-3.382-9.277-3.264-13.147,0.949c-2.441,2.657-3.976,5.761-4.269,9.412c-0.05,0.627-0.232,1.187-0.981,1.272
			c-0.728,0.082-1.211-0.251-1.457-0.936c-0.066-0.185-0.134-0.37-0.189-0.559c-0.815-2.76-0.405-5.356,0.912-7.893
			c1.168-2.248,1.106-4.522-0.455-6.582c-1.504-1.985-3.604-2.835-6.05-2.495c-3.075,0.427-5.817,1.694-8.172,3.745
			c-5.104,4.447-4.998,11.124,0.275,15.351c2.511,2.013,5.323,3.365,8.593,3.611c0.646,0.049,1.287,0.202,1.374,1.025
			c0.086,0.811-0.391,1.236-1.082,1.49c-0.147,0.054-0.306,0.077-0.456,0.123c-2.764,0.84-5.33,0.339-7.889-0.917
			c-4.503-2.21-9.32,0.83-9.038,5.829c0.254,4.515,2.272,8.313,6.093,10.857c4.285,2.853,8.825,2.247,12.307-1.499
			c2.455-2.641,3.993-5.753,4.305-9.4c0.058-0.68,0.235-1.278,1.03-1.359c0.733-0.075,1.184,0.331,1.423,0.998
			c0.066,0.185,0.129,0.371,0.185,0.559c0.837,2.81,0.28,5.41-0.968,8.007c-2.1,4.37,0.84,8.933,6.395,8.935
			c2.827-0.208,5.94-1.552,8.53-3.963c3.681-3.426,5.839-9.888-0.244-14.951c-2.578-2.146-5.5-3.526-8.876-3.831
			c-0.635-0.057-1.198-0.192-1.312-0.929c-0.111-0.724,0.229-1.216,0.898-1.483c0.219-0.088,0.444-0.162,0.671-0.226
			c2.81-0.782,5.412-0.253,8.009,1.004c4.324,2.093,9.07-0.922,8.891-5.714C94.206,57.924,92.413,54.288,89.055,51.713z"/>
		<path fill="#00FF8B" stroke="#000000" stroke-width="0.25" stroke-miterlimit="10" d="M65.91,39.588h0.233
			c0.235,0,0.442-0.024,0.62-0.072c0.178-0.048,0.34-0.128,0.485-0.239c0.145-0.111,0.255-0.266,0.33-0.466
			c0.076-0.199,0.113-0.444,0.113-0.733c0-0.285-0.038-0.526-0.113-0.724c-0.076-0.197-0.186-0.349-0.33-0.456
			c-0.145-0.107-0.305-0.182-0.481-0.227c-0.176-0.044-0.384-0.066-0.623-0.066H65.91c-0.042,0-0.063,0.021-0.063,0.063v2.857
			C65.847,39.567,65.868,39.588,65.91,39.588z"/>
		<path fill="#00FF8B" stroke="#000000" stroke-width="0.25" stroke-miterlimit="10" d="M99.863,26.781v-0.017h-0.004
			c-0.365-2.102-3.335-3.709-9.052-4.901c-5.266-1.099-12.249-1.704-19.661-1.704s-14.395,0.605-19.661,1.704
			c-6.118,1.276-9.092,3.027-9.092,5.35c0,0.003,0.001,0.006,0.001,0.009c0-0.001-0.001-0.002-0.001-0.003v13.293v2.979v54.492
			c0,3.16,12.865,5.721,28.735,5.721c15.87,0,28.735-2.561,28.735-5.721V43.492v-2.979V27.646c0.024-0.142,0.036-0.286,0.036-0.432
			S99.886,26.923,99.863,26.781z M85.473,67.86c-2.598-1.258-5.199-1.787-8.009-1.004c-0.227,0.063-0.453,0.138-0.671,0.226
			c-0.669,0.268-1.009,0.759-0.898,1.483c0.113,0.737,0.676,0.872,1.312,0.929c3.376,0.305,6.297,1.685,8.876,3.831
			c6.084,5.064,3.925,11.525,0.244,14.951c-2.59,2.411-5.703,3.755-8.53,3.963c-5.555-0.002-8.495-4.565-6.395-8.935
			c1.248-2.597,1.805-5.197,0.968-8.007c-0.056-0.188-0.119-0.374-0.185-0.559c-0.239-0.668-0.69-1.073-1.423-0.998
			c-0.795,0.081-0.972,0.679-1.03,1.359c-0.312,3.646-1.85,6.758-4.305,9.4c-3.481,3.746-8.022,4.352-12.307,1.499
			c-3.821-2.544-5.839-6.342-6.093-10.857c-0.282-4.999,4.534-8.039,9.038-5.829c2.559,1.256,5.125,1.757,7.889,0.917
			c0.151-0.046,0.309-0.069,0.456-0.123c0.691-0.254,1.168-0.679,1.082-1.49c-0.087-0.823-0.728-0.976-1.374-1.025
			c-3.27-0.246-6.082-1.597-8.593-3.611c-5.273-4.227-5.38-10.904-0.275-15.351c2.355-2.051,5.097-3.318,8.172-3.745
			c2.447-0.34,4.546,0.51,6.05,2.495c1.561,2.061,1.623,4.334,0.455,6.582c-1.317,2.536-1.728,5.133-0.912,7.893
			c0.056,0.188,0.123,0.374,0.189,0.559c0.245,0.685,0.729,1.019,1.457,0.936c0.749-0.085,0.931-0.645,0.981-1.272
			c0.292-3.651,1.828-6.755,4.269-9.412c3.87-4.214,8.736-4.332,13.147-0.949c3.357,2.574,5.151,6.211,5.308,10.433
			C94.543,66.938,89.796,69.953,85.473,67.86z M64.708,39.966v-3.725c0-0.151,0.053-0.28,0.16-0.387s0.236-0.161,0.387-0.161h0.938
			c0.411,0,0.778,0.046,1.101,0.138c0.323,0.092,0.603,0.233,0.84,0.422c0.237,0.189,0.419,0.437,0.547,0.746
			c0.128,0.308,0.192,0.668,0.192,1.079c0,0.411-0.063,0.773-0.189,1.085c-0.126,0.312-0.306,0.566-0.541,0.761
			c-0.235,0.195-0.51,0.342-0.824,0.44c-0.315,0.099-0.667,0.148-1.057,0.148h-1.007c-0.151,0-0.28-0.053-0.387-0.16
			C64.762,40.246,64.708,40.117,64.708,39.966z M70.075,41.407c0-0.021,0.002-0.044,0.006-0.069l1.258-5.682
			c0.021-0.105,0.074-0.192,0.16-0.261s0.183-0.104,0.292-0.104c0.097,0,0.174,0.038,0.233,0.113
			c0.046,0.054,0.069,0.115,0.069,0.182c0,0.021-0.002,0.044-0.006,0.069l-1.258,5.682c-0.025,0.105-0.08,0.192-0.164,0.261
			c-0.084,0.069-0.181,0.104-0.289,0.104c-0.097,0-0.174-0.038-0.233-0.113C70.098,41.534,70.075,41.474,70.075,41.407z
			 M76.402,39.056c-0.031-0.048-0.066-0.088-0.104-0.12c-0.038-0.031-0.1-0.066-0.186-0.104c-0.086-0.038-0.158-0.067-0.217-0.088
			c-0.059-0.021-0.149-0.05-0.271-0.088c-0.021-0.008-0.038-0.015-0.05-0.019l-0.636-0.214c-0.147-0.05-0.285-0.114-0.415-0.192
			c-0.13-0.077-0.252-0.172-0.365-0.283c-0.113-0.111-0.202-0.243-0.267-0.396c-0.065-0.153-0.097-0.318-0.097-0.494
			c0-0.411,0.178-0.754,0.535-1.029c0.356-0.275,0.808-0.412,1.353-0.412c0.344,0,0.675,0.056,0.994,0.167
			c0.319,0.111,0.6,0.274,0.843,0.488l-0.591,0.749c-0.403-0.281-0.822-0.422-1.258-0.422c-0.197,0-0.364,0.034-0.5,0.101
			c-0.136,0.067-0.205,0.17-0.205,0.308c0,0.038,0.008,0.075,0.025,0.11s0.046,0.069,0.088,0.101
			c0.042,0.031,0.082,0.057,0.12,0.079c0.038,0.021,0.095,0.046,0.173,0.076c0.077,0.029,0.14,0.053,0.189,0.069
			c0.048,0.017,0.12,0.04,0.217,0.069c0.046,0.017,0.082,0.029,0.107,0.038l0.629,0.214c0.34,0.109,0.611,0.277,0.815,0.503
			c0.203,0.227,0.305,0.51,0.305,0.849c0,0.424-0.18,0.775-0.541,1.054c-0.361,0.279-0.841,0.418-1.441,0.418
			c-0.382,0-0.751-0.06-1.107-0.179c-0.356-0.12-0.671-0.295-0.944-0.526l0.648-0.805c0.193,0.151,0.422,0.276,0.686,0.375
			c0.264,0.099,0.51,0.148,0.736,0.148c0.218,0,0.403-0.031,0.554-0.094s0.227-0.161,0.227-0.296
			C76.449,39.156,76.433,39.105,76.402,39.056z M71.145,31.602c-17.496,0-25.752-3.154-26.089-4.367
			c0.338-1.255,8.594-4.408,26.089-4.408c17.4,0,25.662,3.12,26.083,4.388C96.807,28.482,88.546,31.602,71.145,31.602z"/>
	</g>
	<text transform="matrix(1 0 0 1 104.2402 58.9093)"><tspan x="0" y="0" fill="#00FF8B" stroke="#000000" stroke-width="0.25" stroke-miterlimit="10" font-family="'FuturaBT-BoldCondensed'" font-size="50px">SKI</tspan><tspan x="0" y="41" fill="#00FF8B" stroke="#000000" stroke-width="0.25" stroke-miterlimit="10" font-family="'FuturaBT-BoldCondensed'" font-size="50px">LLS</tspan></text>
	
		<text transform="matrix(1 0 0 1 8.6182 40.5907)" fill="#2DF89E" stroke="#000000" stroke-width="0.25" stroke-miterlimit="10" font-family="'NotoSansMonoCJKtc-Bold-B5pc-H'" font-size="15px">技能</text>
</g>
<g id="圖層_3">
	<g>
		<g>
			<g enable-background="new    ">
				<g enable-background="new    ">
					<defs>
						<polygon id="SVGID_104_" enable-background="new    " points="77.016,0.154 78.456,94.006 2.163,104.728 0.724,10.876 						
							"/>
					</defs>
					<clipPath id="SVGID_2_">
						<use xlink:href="#SVGID_104_"  overflow="visible"/>
					</clipPath>
					<polygon clip-path="url(#SVGID_2_)" fill="none" stroke="#000000" stroke-width="0.25" stroke-miterlimit="10" points="
						77.016,0.154 78.456,94.006 2.163,104.728 0.724,10.876 					"/>
				</g>
				<g enable-background="new    ">
					<defs>
						<polygon id="SVGID_106_" enable-background="new    " points="196.673,25.328 198.112,119.181 121.82,129.903 120.381,36.05 
													"/>
					</defs>
					<clipPath id="SVGID_4_">
						<use xlink:href="#SVGID_106_"  overflow="visible"/>
					</clipPath>
					<polygon clip-path="url(#SVGID_4_)" fill="none" stroke="#000000" stroke-width="0.25" stroke-miterlimit="10" points="
						196.673,25.328 198.112,119.181 121.82,129.903 120.381,36.05 					"/>
				</g>
				<g enable-background="new    ">
					<defs>
						<polygon id="SVGID_108_" enable-background="new    " points="196.673,25.328 198.112,119.181 78.456,94.006 77.016,0.154 
													"/>
					</defs>
					<clipPath id="SVGID_6_">
						<use xlink:href="#SVGID_108_"  overflow="visible"/>
					</clipPath>
					<polygon clip-path="url(#SVGID_6_)" fill="none" stroke="#000000" stroke-width="0.25" stroke-miterlimit="10" points="
						196.673,25.328 198.112,119.181 78.456,94.006 77.016,0.154 					"/>
				</g>
				<g enable-background="new    ">
					<defs>
						<polygon id="SVGID_110_" enable-background="new    " points="198.112,119.181 121.82,129.903 2.163,104.728 78.456,94.006 
													"/>
					</defs>
					<clipPath id="SVGID_8_">
						<use xlink:href="#SVGID_110_"  overflow="visible"/>
					</clipPath>
					<polygon clip-path="url(#SVGID_8_)" fill="none" stroke="#000000" stroke-width="0.25" stroke-miterlimit="10" points="
						198.112,119.181 121.82,129.903 2.163,104.728 78.456,94.006 					"/>
				</g>
				<g enable-background="new    ">
					<defs>
						<polygon id="SVGID_112_" enable-background="new    " points="121.82,129.903 2.163,104.728 0.724,10.876 120.381,36.05 
													"/>
					</defs>
					<clipPath id="SVGID_10_">
						<use xlink:href="#SVGID_112_"  overflow="visible"/>
					</clipPath>
					<polygon clip-path="url(#SVGID_10_)" fill="none" stroke="#000000" stroke-width="0.25" stroke-miterlimit="10" points="
						121.82,129.903 2.163,104.728 0.724,10.876 120.381,36.05 					"/>
				</g>
				<g enable-background="new    ">
					<defs>
						<polygon id="SVGID_114_" enable-background="new    " points="120.381,36.05 0.724,10.876 77.016,0.154 196.673,25.328 						
							"/>
					</defs>
					<clipPath id="SVGID_12_">
						<use xlink:href="#SVGID_114_"  overflow="visible"/>
					</clipPath>
					<polygon clip-path="url(#SVGID_12_)" fill="none" stroke="#000000" stroke-width="0.25" stroke-miterlimit="10" points="
						120.381,36.05 0.724,10.876 77.016,0.154 196.673,25.328 					"/>
				</g>
			</g>
		</g>
	</g>
</g>
<g id="圖層_4">
</g>
</svg>
