<?xml version="1.0" encoding="utf-8"?>
<!-- Generator: Adobe Illustrator 23.0.4, SVG Export Plug-In . SVG Version: 6.00 Build 0)  -->
<svg version="1.1" xmlns="http://www.w3.org/2000/svg" xmlns:xlink="http://www.w3.org/1999/xlink" x="0px" y="0px"
	 viewBox="0 0 260 240" enable-background="new 0 0 260 240" xml:space="preserve">
<g id="bg">
</g>
<g id="圖層_1">
	<g>
		
			<text transform="matrix(1 0 0 1 46.5826 106.3339)" fill="#00FF8B" stroke="#000000" stroke-width="0.25" stroke-miterlimit="10" font-family="'FuturaBT-BoldCondensed'" font-size="30px">OBSERVANT</text>
	</g>
	<g>
		
			<radialGradient id="SVGID_4_" cx="134.4369" cy="113.2709" r="29.9932" gradientTransform="matrix(0.9788 0.2049 -0.2049 0.9788 -0.4985 -4.2693)" gradientUnits="userSpaceOnUse">
			<stop  offset="0.1578" style="stop-color:#00FF8B"/>
			<stop  offset="1" style="stop-color:#EEEEEF"/>
		</radialGradient>
		<path fill="url(#SVGID_4_)" stroke="#000000" stroke-width="0.25" stroke-miterlimit="10" d="M128.465,120.392l-0.055-0.012
			c1.71-8.966-4.09-17.715-13.06-19.593c-9.041-1.893-17.935,3.9-19.872,12.92l-19.189,48.741l49.272,9.829L128.465,120.392z"/>
		
			<radialGradient id="SVGID_6_" cx="100.925" cy="168.9581" r="25.0728" gradientTransform="matrix(1 -0.0096 0.0096 1 -1.8124 1.0791)" gradientUnits="userSpaceOnUse">
			<stop  offset="0.1578" style="stop-color:#00FF8B"/>
			<stop  offset="1" style="stop-color:#EEEEEF"/>
		</radialGradient>
		
			<circle fill="url(#SVGID_6_)" stroke="#000000" stroke-width="0.25" stroke-miterlimit="10" cx="100.737" cy="169.056" r="25.073"/>
		
			<radialGradient id="SVGID_14_" cx="156.2695" cy="135.7174" r="29.9932" gradientTransform="matrix(1 -0.0096 0.0096 0.9979 -1.8116 1.1602)" gradientUnits="userSpaceOnUse">
			<stop  offset="0.1578" style="stop-color:#00FF8B"/>
			<stop  offset="1" style="stop-color:#EEEEEF"/>
		</radialGradient>
		<path fill="url(#SVGID_14_)" stroke="#000000" stroke-width="0.25" stroke-miterlimit="10" d="M172.918,117.276l-0.057,0.001
			c-0.251-9.105-7.791-16.393-16.956-16.304c-9.237,0.089-16.682,7.637-16.641,16.844l-8.298,51.614l50.234-0.958L172.918,117.276z"
			/>
		
			<radialGradient id="SVGID_16_" cx="166.8738" cy="181.4373" r="35.6468" gradientTransform="matrix(1 -0.0096 0.0096 1 -1.8124 1.0791)" gradientUnits="userSpaceOnUse">
			<stop  offset="0.1578" style="stop-color:#00FF8B"/>
			<stop  offset="1" style="stop-color:#EEEEEF"/>
		</radialGradient>
		<path fill="url(#SVGID_16_)" stroke="#000000" stroke-width="0.25" stroke-miterlimit="10" d="M173.685,152.528
			c-9.885-9.697-25.76-9.544-35.457,0.342c-9.697,9.885-9.544,25.76,0.342,35.457c9.291,9.113,23.87,9.524,33.64,1.335l4.084,4.006
			c-0.256,1.394,0.163,2.887,1.251,3.954l17.696,17.358c1.741,1.708,4.537,1.681,6.245-0.06c1.708-1.741,1.681-4.537-0.06-6.245
			l-17.696-17.358c-1.088-1.067-2.588-1.457-3.978-1.174l-4.084-4.006C183.668,176.21,182.975,161.641,173.685,152.528z"/>
		
			<radialGradient id="SVGID_18_" cx="156.4119" cy="170.7389" r="21.3926" gradientTransform="matrix(1 -0.0096 0.0096 1 -1.8124 1.0791)" gradientUnits="userSpaceOnUse">
			<stop  offset="0.1578" style="stop-color:#00FF8B"/>
			<stop  offset="1" style="stop-color:#EEEEEF"/>
		</radialGradient>
		
			<circle fill="url(#SVGID_18_)" stroke="#000000" stroke-width="0.25" stroke-miterlimit="10" cx="156.239" cy="170.302" r="21.393"/>
		
			<radialGradient id="SVGID_20_" cx="100.925" cy="168.9581" r="21.3926" gradientTransform="matrix(1 -0.0096 0.0096 1 -1.8124 1.0791)" gradientUnits="userSpaceOnUse">
			<stop  offset="0.1578" style="stop-color:#00FF8B"/>
			<stop  offset="1" style="stop-color:#EEEEEF"/>
		</radialGradient>
		
			<circle fill="url(#SVGID_20_)" stroke="#000000" stroke-width="0.25" stroke-miterlimit="10" cx="100.737" cy="169.056" r="21.393"/>
	</g>
</g>
<g id="圖層_3">
</g>
<g id="圖層_4">
	<g>
		<g>
			<g enable-background="new    ">
				<g enable-background="new    ">
					<defs>
						<polygon id="SVGID_187_" enable-background="new    " points="148.945,58.308 148.225,185.986 21.999,197.029 22.719,69.352 
													"/>
					</defs>
					<clipPath id="SVGID_22_">
						<use xlink:href="#SVGID_187_"  overflow="visible"/>
					</clipPath>
					<polygon clip-path="url(#SVGID_22_)" fill="none" stroke="#000000" stroke-width="0.25" stroke-miterlimit="10" points="
						148.945,58.308 148.225,185.986 21.999,197.029 22.719,69.352 					"/>
				</g>
				<g enable-background="new    ">
					<defs>
						<polygon id="SVGID_189_" enable-background="new    " points="238.002,92.258 237.281,219.935 111.055,230.979 
							111.775,103.301 						"/>
					</defs>
					<clipPath id="SVGID_23_">
						<use xlink:href="#SVGID_189_"  overflow="visible"/>
					</clipPath>
					<polygon clip-path="url(#SVGID_23_)" fill="none" stroke="#000000" stroke-width="0.25" stroke-miterlimit="10" points="
						238.002,92.258 237.281,219.935 111.055,230.979 111.775,103.301 					"/>
				</g>
				<g enable-background="new    ">
					<defs>
						<polygon id="SVGID_191_" enable-background="new    " points="238.002,92.258 237.281,219.935 148.225,185.986 
							148.945,58.308 						"/>
					</defs>
					<clipPath id="SVGID_24_">
						<use xlink:href="#SVGID_191_"  overflow="visible"/>
					</clipPath>
					<polygon clip-path="url(#SVGID_24_)" fill="none" stroke="#000000" stroke-width="0.25" stroke-miterlimit="10" points="
						238.002,92.258 237.281,219.935 148.225,185.986 148.945,58.308 					"/>
				</g>
				<g enable-background="new    ">
					<defs>
						<polygon id="SVGID_193_" enable-background="new    " points="237.281,219.935 111.055,230.979 21.999,197.029 
							148.225,185.986 						"/>
					</defs>
					<clipPath id="SVGID_25_">
						<use xlink:href="#SVGID_193_"  overflow="visible"/>
					</clipPath>
					<polygon clip-path="url(#SVGID_25_)" fill="none" stroke="#000000" stroke-width="0.25" stroke-miterlimit="10" points="
						237.281,219.935 111.055,230.979 21.999,197.029 148.225,185.986 					"/>
				</g>
				<g enable-background="new    ">
					<defs>
						<polygon id="SVGID_195_" enable-background="new    " points="111.055,230.979 21.999,197.029 22.719,69.352 111.775,103.301 
													"/>
					</defs>
					<clipPath id="SVGID_26_">
						<use xlink:href="#SVGID_195_"  overflow="visible"/>
					</clipPath>
					<polygon clip-path="url(#SVGID_26_)" fill="none" stroke="#000000" stroke-width="0.25" stroke-miterlimit="10" points="
						111.055,230.979 21.999,197.029 22.719,69.352 111.775,103.301 					"/>
				</g>
				<g enable-background="new    ">
					<defs>
						<polygon id="SVGID_197_" enable-background="new    " points="111.775,103.301 22.719,69.352 148.945,58.308 238.002,92.258 
													"/>
					</defs>
					<clipPath id="SVGID_27_">
						<use xlink:href="#SVGID_197_"  overflow="visible"/>
					</clipPath>
					<polygon clip-path="url(#SVGID_27_)" fill="none" stroke="#000000" stroke-width="0.25" stroke-miterlimit="10" points="
						111.775,103.301 22.719,69.352 148.945,58.308 238.002,92.258 					"/>
				</g>
			</g>
		</g>
	</g>
</g>
</svg>
