<?xml version="1.0" encoding="utf-8"?>
<!-- Generator: Adobe Illustrator 23.0.4, SVG Export Plug-In . SVG Version: 6.00 Build 0)  -->
<svg version="1.1" xmlns="http://www.w3.org/2000/svg" xmlns:xlink="http://www.w3.org/1999/xlink" x="0px" y="0px"
	 viewBox="0 0 260 240" enable-background="new 0 0 260 240" xml:space="preserve">
<g id="bg">
</g>
<g id="圖層_1">
	<g>
		
			<text transform="matrix(1 0 0 1 47.7439 101.6888)" fill="#00FF8B" stroke="#000000" stroke-width="0.25" stroke-miterlimit="10" font-family="'FuturaBT-BoldCondensed'" font-size="30px">COOPERATIVE</text>
	</g>
</g>
<g id="圖層_3">
	<g>
		<radialGradient id="SVGID_4_" cx="114.4808" cy="159.8031" r="52.6084" gradientUnits="userSpaceOnUse">
			<stop  offset="0.1578" style="stop-color:#00FF8B"/>
			<stop  offset="1" style="stop-color:#EEEEEF"/>
		</radialGradient>
		<path fill="url(#SVGID_4_)" stroke="#000000" stroke-width="0.25" stroke-miterlimit="10" d="M49.248,145.41
			c10.171-2.965,20.34-5.943,30.493-8.971c4.099-1.222,8.163-2.617,12.273-3.793c4.937-1.414,9.958-1.843,14.77-3.802
			c4.408-1.795,9.044-3.784,13.786-4.51c5.515-0.844,11.753,0.298,17.332,0.48c-1.213,5.352-3.393,11.141-3.763,16.602
			c-0.249,3.674,2.449,4.91,5.181,6.684c3.887,2.526,8.127,4.336,12.292,6.346c4.527,2.185,9.039,4.402,13.525,6.669
			c3.952,1.997,10.969,3.997,13.359,7.94c1.653,2.729,1.803,7.948-0.669,10.211c-2.086,1.91-6.793,2.182-9.421,1.46
			c2.068,3.059,1.308,6.37-1.368,8.872c-1.91,1.785-3.65,1.371-6.093,1.113c-0.051-0.005-3.419-0.252-3.385-0.404
			c-0.316,1.399,0.325,2.722-0.773,4.003c-1.383,1.614-3.819,1.301-5.705,1.117c-5.148-0.503-10.266-1.647-15.32-2.714
			c-5.619-1.186-10.156-2.596-15.425-4.795c-7.85-3.275-15.817-6.357-23.572-9.852c-1.992-0.898-3.6-2.325-5.738-2.947
			c-4.798-1.395-9.622-0.179-14.271,1.114c-8.98,2.498-17.794,5.703-26.499,9.026C49.92,171.977,49.584,158.693,49.248,145.41z"/>
		<radialGradient id="SVGID_6_" cx="145.4268" cy="145.7984" r="41.6405" gradientUnits="userSpaceOnUse">
			<stop  offset="0.1578" style="stop-color:#00FF8B"/>
			<stop  offset="1" style="stop-color:#EEEEEF"/>
		</radialGradient>
		<path fill="url(#SVGID_6_)" stroke="#000000" stroke-width="0.25" stroke-miterlimit="10" d="M184.319,123.545
			c-6.358,0.508-12.804,1.31-19.185,1.334c-8.435,0.032-16.933-1.479-25.407-1.655c-4.18-0.087-8.817-0.785-12.964-0.089
			c-3.051,0.512-6.127,2.059-8.972,3.206c-5.228,2.108-12.963,3.717-15.612,9.063c-1.857,3.748-3.492,7.675-5.706,11.234
			c-1.698,2.73-6.602,6.64-4.929,10.261c2.062,4.463,11.06,3.077,14.138,0.9c4.8-3.394,7.411-9.398,12.07-12.91
			c2.341-1.765,7.665-2.86,10.573-2.26c1.905,0.394,3.964,1.959,5.672,2.846c6.219,3.232,12.428,6.483,18.687,9.636
			c7.164,3.609,14.079,7.681,21.175,11.411c4.389,2.307,9.496,1.593,14.314,1.754c3.741,0.125,7.48,0.297,11.218,0.493
			c0.038-11.068,0.075-22.136,0.113-33.204c0.009-2.619,0.018-5.237,0.027-7.856c0.002-0.478,0.293-2.627-0.043-2.973
			c-0.891-0.916-6.663-0.523-7.952-0.624C189.131,123.923,186.725,123.734,184.319,123.545z"/>
		<radialGradient id="SVGID_14_" cx="109.0922" cy="183.8186" r="23.8143" gradientUnits="userSpaceOnUse">
			<stop  offset="0.1578" style="stop-color:#00FF8B"/>
			<stop  offset="1" style="stop-color:#EEEEEF"/>
		</radialGradient>
		<path fill="url(#SVGID_14_)" stroke="#000000" stroke-width="0.25" stroke-miterlimit="10" d="M78.949,170.708
			c2.754-2.819,7.547-0.046,10,1.642c2.981,2.051,3.955,1.452,6.75-0.006c3.139-1.636,7.09-3.349,10.732-2.511
			c3.542,0.815,5.823,5.283,4.456,8.572c0.433-1.042,4.32-1.52,5.225-1.577c2.187-0.139,4.818,0.13,6.492,1.688
			c1.653,1.539,3.286,8.303-0.223,8.759c2.702-1.041,5.599-0.361,6.119,2.836c2.322-3.569,11.48-2.366,11.062,2.515
			c-0.436,5.085-9.417,4.687-11.659,1.217c-1.804,2.448-4.718,4.745-7.927,4.221c-3.135-0.513-5.391-5.207-5.804-8.101
			c-2.493,8.044-12.466,0.597-13.582-4.776c-7.205,1.84-10.086-4.475-11.641-10.447c-0.744,1.988-2.201,5.422-4.649,5.65
			C80.089,180.779,77.678,173.815,78.949,170.708z"/>
		<radialGradient id="SVGID_16_" cx="153.788" cy="173.5157" r="11.525" gradientUnits="userSpaceOnUse">
			<stop  offset="0.1578" style="stop-color:#00FF8B"/>
			<stop  offset="1" style="stop-color:#EEEEEF"/>
		</radialGradient>
		
			<line fill="url(#SVGID_16_)" stroke="#000000" stroke-width="0.25" stroke-miterlimit="10" x1="168.405" y1="180.726" x2="139.171" y2="166.305"/>
		<polyline fill="none" stroke="#000000" stroke-width="0.25" stroke-miterlimit="10" points="157.559,190.307 134.693,179.29 
			131.335,180.633 		"/>
		<linearGradient id="SVGID_18_" gradientUnits="userSpaceOnUse" x1="190.7167" y1="146.6156" x2="208.0079" y2="146.6156">
			<stop  offset="0.0709" style="stop-color:#00FF8B"/>
			<stop  offset="0.1598" style="stop-color:#0DFE91"/>
			<stop  offset="0.3258" style="stop-color:#31FC9F"/>
			<stop  offset="0.5509" style="stop-color:#6AF7B7"/>
			<stop  offset="0.8234" style="stop-color:#B8F2D8"/>
			<stop  offset="1" style="stop-color:#EEEEEF"/>
		</linearGradient>
		
			<ellipse fill="url(#SVGID_18_)" stroke="#000000" stroke-width="0.25" stroke-miterlimit="10" cx="198.796" cy="146.616" rx="6.045" ry="22.175"/>
		<linearGradient id="SVGID_20_" gradientUnits="userSpaceOnUse" x1="41.4672" y1="165.2977" x2="58.7584" y2="165.2977">
			<stop  offset="0.0709" style="stop-color:#00FF8B"/>
			<stop  offset="0.1598" style="stop-color:#0DFE91"/>
			<stop  offset="0.3258" style="stop-color:#31FC9F"/>
			<stop  offset="0.5509" style="stop-color:#6AF7B7"/>
			<stop  offset="0.8234" style="stop-color:#B8F2D8"/>
			<stop  offset="1" style="stop-color:#EEEEEF"/>
		</linearGradient>
		
			<ellipse fill="url(#SVGID_20_)" stroke="#000000" stroke-width="0.25" stroke-miterlimit="10" cx="49.547" cy="165.298" rx="6.045" ry="19.962"/>
		<radialGradient id="SVGID_22_" cx="103.4629" cy="183.0211" r="2.5434" gradientUnits="userSpaceOnUse">
			<stop  offset="0.1578" style="stop-color:#00FF8B"/>
			<stop  offset="1" style="stop-color:#EEEEEF"/>
		</radialGradient>
		
			<line fill="url(#SVGID_22_)" stroke="#000000" stroke-width="0.25" stroke-miterlimit="10" x1="100.59" y1="185.185" x2="106.336" y2="180.857"/>
	</g>
</g>
<g id="圖層_4">
	<g>
		<g>
			<g enable-background="new    ">
				<g enable-background="new    ">
					<defs>
						<polygon id="SVGID_199_" enable-background="new    " points="148.943,53.663 148.222,181.341 21.996,192.384 22.717,64.706 
													"/>
					</defs>
					<clipPath id="SVGID_23_">
						<use xlink:href="#SVGID_199_"  overflow="visible"/>
					</clipPath>
					<polygon clip-path="url(#SVGID_23_)" fill="none" stroke="#000000" stroke-width="0.25" stroke-miterlimit="10" points="
						148.943,53.663 148.222,181.341 21.996,192.384 22.717,64.706 					"/>
				</g>
				<g enable-background="new    ">
					<defs>
						<polygon id="SVGID_201_" enable-background="new    " points="237.999,87.613 237.279,215.29 111.052,226.334 111.773,98.656 
													"/>
					</defs>
					<clipPath id="SVGID_24_">
						<use xlink:href="#SVGID_201_"  overflow="visible"/>
					</clipPath>
					<polygon clip-path="url(#SVGID_24_)" fill="none" stroke="#000000" stroke-width="0.25" stroke-miterlimit="10" points="
						237.999,87.613 237.279,215.29 111.052,226.334 111.773,98.656 					"/>
				</g>
				<g enable-background="new    ">
					<defs>
						<polygon id="SVGID_203_" enable-background="new    " points="237.999,87.613 237.279,215.29 148.222,181.341 148.943,53.663 
													"/>
					</defs>
					<clipPath id="SVGID_25_">
						<use xlink:href="#SVGID_203_"  overflow="visible"/>
					</clipPath>
					<polygon clip-path="url(#SVGID_25_)" fill="none" stroke="#000000" stroke-width="0.25" stroke-miterlimit="10" points="
						237.999,87.613 237.279,215.29 148.222,181.341 148.943,53.663 					"/>
				</g>
				<g enable-background="new    ">
					<defs>
						<polygon id="SVGID_205_" enable-background="new    " points="237.279,215.29 111.052,226.334 21.996,192.384 
							148.222,181.341 						"/>
					</defs>
					<clipPath id="SVGID_26_">
						<use xlink:href="#SVGID_205_"  overflow="visible"/>
					</clipPath>
					<polygon clip-path="url(#SVGID_26_)" fill="none" stroke="#000000" stroke-width="0.25" stroke-miterlimit="10" points="
						237.279,215.29 111.052,226.334 21.996,192.384 148.222,181.341 					"/>
				</g>
				<g enable-background="new    ">
					<defs>
						<polygon id="SVGID_207_" enable-background="new    " points="111.052,226.334 21.996,192.384 22.717,64.706 111.773,98.656 
													"/>
					</defs>
					<clipPath id="SVGID_27_">
						<use xlink:href="#SVGID_207_"  overflow="visible"/>
					</clipPath>
					<polygon clip-path="url(#SVGID_27_)" fill="none" stroke="#000000" stroke-width="0.25" stroke-miterlimit="10" points="
						111.052,226.334 21.996,192.384 22.717,64.706 111.773,98.656 					"/>
				</g>
				<g enable-background="new    ">
					<defs>
						<polygon id="SVGID_209_" enable-background="new    " points="111.773,98.656 22.717,64.706 148.943,53.663 237.999,87.613 
													"/>
					</defs>
					<clipPath id="SVGID_28_">
						<use xlink:href="#SVGID_209_"  overflow="visible"/>
					</clipPath>
					<polygon clip-path="url(#SVGID_28_)" fill="none" stroke="#000000" stroke-width="0.25" stroke-miterlimit="10" points="
						111.773,98.656 22.717,64.706 148.943,53.663 237.999,87.613 					"/>
				</g>
			</g>
		</g>
	</g>
</g>
</svg>
