<svg xmlns="http://www.w3.org/2000/svg" xmlns:xlink="http://www.w3.org/1999/xlink" viewBox="0 0 198.83 130.06"><defs><style>.cls-1,.cls-3{fill:none;}.cls-2{fill:#00ff8b;}.cls-2,.cls-3,.cls-4{stroke:#000;stroke-miterlimit:10;stroke-width:0.25px;}.cls-4{fill:#2df89e;}.cls-5{isolation:isolate;}.cls-6{clip-path:url(#clip-path);}.cls-7{clip-path:url(#clip-path-2);}.cls-8{clip-path:url(#clip-path-3);}.cls-9{clip-path:url(#clip-path-4);}.cls-10{clip-path:url(#clip-path-5);}.cls-11{clip-path:url(#clip-path-6);}</style><clipPath id="clip-path"><polygon class="cls-1" points="77.02 0.15 78.45 94.01 2.16 104.73 0.72 10.88 77.02 0.15"/></clipPath><clipPath id="clip-path-2"><polygon class="cls-1" points="196.67 25.33 198.11 119.18 121.82 129.9 120.38 36.05 196.67 25.33"/></clipPath><clipPath id="clip-path-3"><polygon class="cls-1" points="196.67 25.33 198.11 119.18 78.45 94.01 77.02 0.15 196.67 25.33"/></clipPath><clipPath id="clip-path-4"><polygon class="cls-1" points="198.11 119.18 121.82 129.9 2.16 104.73 78.45 94.01 198.11 119.18"/></clipPath><clipPath id="clip-path-5"><polygon class="cls-1" points="121.82 129.9 2.16 104.73 0.72 10.88 120.38 36.05 121.82 129.9"/></clipPath><clipPath id="clip-path-6"><polygon class="cls-1" points="120.38 36.05 0.72 10.88 77.02 0.15 196.67 25.33 120.38 36.05"/></clipPath></defs><title>work-title</title><g id="圖層_1" data-name="圖層 1"><path class="cls-2" d="M71.13,66.16a2.44,2.44,0,0,0-2.36,2.32,2.38,2.38,0,1,0,4.75.09A2.44,2.44,0,0,0,71.13,66.16Z"/><path class="cls-3" d="M71.14,22.83c-17.49,0-25.75,3.15-26.08,4.4.33,1.22,8.59,4.37,26.08,4.37s25.67-3.12,26.09-4.39C96.81,26,88.55,22.83,71.14,22.83Z"/><path class="cls-3" d="M89.06,51.71c-4.42-3.38-9.28-3.26-13.15.95a15.48,15.48,0,0,0-4.27,9.42c0,.62-.23,1.18-1,1.27a1.28,1.28,0,0,1-1.46-.94c-.06-.18-.13-.37-.19-.56A10.22,10.22,0,0,1,69.93,54a5.83,5.83,0,0,0-.46-6.58,6.15,6.15,0,0,0-6-2.5,15.49,15.49,0,0,0-8.17,3.75c-5.11,4.44-5,11.12.27,15.35a15.49,15.49,0,0,0,8.6,3.61c.64,0,1.28.2,1.37,1a1.35,1.35,0,0,1-1.08,1.49c-.15.06-.31.08-.46.13a10.37,10.37,0,0,1-7.89-.92c-4.5-2.21-9.32.83-9,5.83A13.45,13.45,0,0,0,53.12,86c4.28,2.85,8.82,2.24,12.31-1.5a15.52,15.52,0,0,0,4.3-9.4c.06-.68.24-1.28,1-1.36a1.29,1.29,0,0,1,1.42,1c.07.18.13.37.19.56a10.7,10.7,0,0,1-1,8c-2.1,4.37.84,8.94,6.4,8.94a14.44,14.44,0,0,0,8.53-4c3.68-3.43,5.83-9.89-.25-15a16,16,0,0,0-8.87-3.83c-.64,0-1.2-.19-1.32-.93a1.28,1.28,0,0,1,.9-1.48,5.82,5.82,0,0,1,.67-.22,10.93,10.93,0,0,1,8,1,6.07,6.07,0,0,0,8.89-5.71A13.37,13.37,0,0,0,89.06,51.71Z"/><path class="cls-2" d="M65.91,39.59h.23a2.79,2.79,0,0,0,.62-.07,1.49,1.49,0,0,0,.49-.24,1.11,1.11,0,0,0,.33-.47,2.48,2.48,0,0,0,0-1.46,1.1,1.1,0,0,0-.33-.45,1.52,1.52,0,0,0-.48-.23,2.93,2.93,0,0,0-.63-.06h-.23a.05.05,0,0,0-.06.06v2.86A.05.05,0,0,0,65.91,39.59Z"/><path class="cls-2" d="M99.86,26.78v0h0c-.37-2.1-3.34-3.7-9-4.9a101.06,101.06,0,0,0-19.67-1.7,101,101,0,0,0-19.66,1.7c-6.11,1.28-9.09,3-9.09,5.35h0V98c0,3.16,12.87,5.72,28.74,5.72S99.86,101.14,99.86,98V27.65a2.18,2.18,0,0,0,0-.44A2.09,2.09,0,0,0,99.86,26.78ZM85.47,67.86a10.93,10.93,0,0,0-8-1,5.82,5.82,0,0,0-.67.22,1.28,1.28,0,0,0-.9,1.48c.12.74.68.88,1.32.93a16,16,0,0,1,8.87,3.83c6.08,5.07,3.93,11.53.25,15a14.44,14.44,0,0,1-8.53,4c-5.56,0-8.5-4.57-6.4-8.94a10.7,10.7,0,0,0,1-8c-.06-.19-.12-.38-.19-.56a1.29,1.29,0,0,0-1.42-1c-.79.08-1,.68-1,1.36a15.52,15.52,0,0,1-4.3,9.4c-3.49,3.74-8,4.35-12.31,1.5A13.45,13.45,0,0,1,47,75.14c-.29-5,4.53-8,9-5.83a10.37,10.37,0,0,0,7.89.92c.15,0,.31-.07.46-.13a1.35,1.35,0,0,0,1.08-1.49c-.09-.82-.73-1-1.37-1A15.49,15.49,0,0,1,55.52,64c-5.27-4.23-5.38-10.91-.27-15.35a15.49,15.49,0,0,1,8.17-3.75,6.15,6.15,0,0,1,6,2.5A5.83,5.83,0,0,1,69.93,54,10.22,10.22,0,0,0,69,61.85c.06.19.13.38.19.56a1.28,1.28,0,0,0,1.46.94c.75-.09.93-.65,1-1.27a15.48,15.48,0,0,1,4.27-9.42c3.87-4.21,8.73-4.33,13.15-.95a13.37,13.37,0,0,1,5.3,10.44A6.07,6.07,0,0,1,85.47,67.86ZM64.71,40V36.24a.53.53,0,0,1,.16-.39.55.55,0,0,1,.39-.16h.93a4.08,4.08,0,0,1,1.1.14,2.21,2.21,0,0,1,.84.42,1.83,1.83,0,0,1,.55.75,3.16,3.16,0,0,1,0,2.16,1.7,1.7,0,0,1-.54.76,2.33,2.33,0,0,1-.82.45,3.89,3.89,0,0,1-1.06.14h-1a.51.51,0,0,1-.39-.16A.49.49,0,0,1,64.71,40Zm5.37,1.44v-.07l1.26-5.68a.42.42,0,0,1,.16-.27.51.51,0,0,1,.29-.1.3.3,0,0,1,.24.11.34.34,0,0,1,.07.19s0,0,0,.07l-1.26,5.68a.48.48,0,0,1-.16.26.45.45,0,0,1-.29.1.3.3,0,0,1-.24-.11A.32.32,0,0,1,70.08,41.41Zm6.32-2.35a.4.4,0,0,0-.1-.12,1,1,0,0,0-.19-.11l-.21-.08a1.31,1.31,0,0,0-.28-.09l-.05,0-.63-.22a2,2,0,0,1-.42-.19,1.93,1.93,0,0,1-.36-.28,1.28,1.28,0,0,1-.27-.4,1.34,1.34,0,0,1-.1-.49,1.25,1.25,0,0,1,.54-1,2.19,2.19,0,0,1,1.35-.41,3,3,0,0,1,1,.16,2.81,2.81,0,0,1,.84.49l-.59.75a2.19,2.19,0,0,0-1.26-.42,1.09,1.09,0,0,0-.5.1A.33.33,0,0,0,75,37a.23.23,0,0,0,0,.11.41.41,0,0,0,.09.1l.12.08.17.07.19.07.22.07.1,0,.63.21a1.85,1.85,0,0,1,.82.51,1.23,1.23,0,0,1,.3.85,1.28,1.28,0,0,1-.54,1.05,2.28,2.28,0,0,1-1.44.42,3.49,3.49,0,0,1-1.11-.18,2.9,2.9,0,0,1-.94-.53l.65-.8a2.59,2.59,0,0,0,.68.37,2.12,2.12,0,0,0,.74.15,1.47,1.47,0,0,0,.55-.09.33.33,0,0,0,.23-.3A.27.27,0,0,0,76.4,39.06ZM71.14,31.6c-17.49,0-25.75-3.15-26.08-4.37.33-1.25,8.59-4.4,26.08-4.4S96.81,26,97.23,27.21C96.81,28.48,88.55,31.6,71.14,31.6Z"/><path class="cls-4" d="M104,23.06h7.14l2.52,16q.36,2.15.63,4.83t.46,5.94l4.62-26.73h5.86l4.6,26.73c0-1.56.07-3.17.19-4.8s.34-3.3.61-5l2.61-16.95h6.95l-7.09,35.35h-6.2l-3.75-19.49c-.19-1-.36-2.13-.5-3.49s-.24-2.83-.3-4.45c-.16,1.76-.32,3.33-.48,4.7s-.32,2.43-.46,3.19l-3.93,19.54h-6.34Z"/><path class="cls-4" d="M166.67,41.25q0,8.09-3.39,12.84a10.59,10.59,0,0,1-9.05,4.76,10.45,10.45,0,0,1-9.13-4.79q-3.27-4.77-3.27-13.3t3.3-13.33a10.94,10.94,0,0,1,18.22.11C165.56,30.84,166.67,35.4,166.67,41.25ZM154.23,52.12a4.33,4.33,0,0,0,4.05-2.84c.9-1.89,1.34-4.73,1.34-8.52s-.44-6.68-1.34-8.57a4.32,4.32,0,0,0-8.1,0q-1.34,2.82-1.33,8.58c0,3.83.44,6.67,1.33,8.55A4.31,4.31,0,0,0,154.23,52.12Z"/><path class="cls-4" d="M106.78,99.81V64.47h7.33c4,0,7,.79,8.78,2.37s2.72,4.11,2.72,7.58a11.52,11.52,0,0,1-1.39,6.06,7.39,7.39,0,0,1-4.2,3.21l6.78,16.12h-7.44L113.6,85.19V99.81Zm6.82-20,.4,0,.4,0a4.45,4.45,0,0,0,3.46-1.28A5.45,5.45,0,0,0,119,74.78a5.36,5.36,0,0,0-1.06-3.7,4.41,4.41,0,0,0-3.41-1.16H114l-.36,0Z"/><path class="cls-4" d="M129.53,99.77V64.47h6.83V79.89l6.9-15.42h7.33l-7.28,16.1,7.53,19.2h-7.53l-6.95-17.22V99.77Z"/><path class="cls-4" d="M152.05,98.58V91.24A10.74,10.74,0,0,0,154.66,93a6.2,6.2,0,0,0,2.59.58,4,4,0,0,0,2.82-.95,3.27,3.27,0,0,0,1-2.56q0-2-2.78-4.36-.78-.65-1.17-1a20.05,20.05,0,0,1-4.45-5.21,11.09,11.09,0,0,1-1.21-5.24,10.54,10.54,0,0,1,2.58-7.4A8.7,8.7,0,0,1,160.81,64a10.41,10.41,0,0,1,2.92.42,15.83,15.83,0,0,1,3,1.32V72a27,27,0,0,0-2.9-1.24,6,6,0,0,0-1.83-.33,3.29,3.29,0,0,0-3.46,3.46,4.7,4.7,0,0,0,.73,2.53,18.45,18.45,0,0,0,3.39,3.47A18.77,18.77,0,0,1,167.27,85a10.76,10.76,0,0,1,1,4.88,10.45,10.45,0,0,1-2.72,7.61,9.87,9.87,0,0,1-7.42,2.8,12.77,12.77,0,0,1-3.31-.41A9.79,9.79,0,0,1,152.05,98.58Z"/><path class="cls-4" d="M23,38.69H19.73v1.44c0,.82-.15,1.23-.76,1.47a8,8,0,0,1-2.55.24,6.7,6.7,0,0,0-.51-1.55c.71,0,1.56,0,1.8,0s.31-.06.31-.25V38.69H13.83a9.19,9.19,0,0,1,1.59,1.37l-1.31,1.12a11,11,0,0,0-2.22-2l.62-.52h-3v-1.4H18v-.55c-2.93.06-5.73.11-7.81.12l0-1.26c1.39,0,3.22,0,5.22,0v-.53H11.12V30.79h4.27v-.53H9.94V28.92h5.45V28h1.72v.94h5.42v1.34H17.11v.53H21.6v4.28h-1a14.54,14.54,0,0,1,1.92,1.18l-1.09.91a5.84,5.84,0,0,0-.62-.49l-1.08,0v.59H23ZM12.76,32.41h2.63v-.55H12.76ZM15.39,34v-.56H12.76V34Zm1.72-2.12v.55h2.77v-.55ZM19.88,34v-.56H17.11V34Zm-2.77,1.61,1.87,0-.6-.27.29-.23H17.11Z"/><path class="cls-4" d="M37.88,38.51H34.45a21.48,21.48,0,0,1,3.34,2l-1.38,1.23a21.63,21.63,0,0,0-3.74-2.4l1-.85H32v3.33H30.2V38.51H27.71l1.74.58a10.71,10.71,0,0,1-3.58,2.49,12.4,12.4,0,0,0-1.49-1.17,7.93,7.93,0,0,0,3.27-1.9H24.41V37.06H30.2V36H32v1h5.91ZM36.05,36.7a32.66,32.66,0,0,0-4.21-1.28A21.46,21.46,0,0,1,25,36.58a5.07,5.07,0,0,0-.61-1.45,33.09,33.09,0,0,0,4.36-.37c-.83-.17-1.66-.32-2.54-.45a15.62,15.62,0,0,0,1.24-1.22h-3V31.71H28.7a13.93,13.93,0,0,0,.94-1.29H26.42v.82H24.78V29h5.27a6.17,6.17,0,0,0-.31-.63L31.61,28a8.5,8.5,0,0,1,.58,1h5.3v2.27h-1.7v-.82H30.34l1.07.33c-.24.31-.48.64-.76,1h2.86a6.5,6.5,0,0,0,.36-.9l1.72.34a5.37,5.37,0,0,1-.21.56h2.34v1.38h-3a5.66,5.66,0,0,1-1.13,1.28c1.6.39,3.06.8,4.17,1.19Zm-6.69-3.61a4.31,4.31,0,0,1-.37.37c.81.14,1.64.3,2.43.46a4.58,4.58,0,0,0,1.14-.83Z"/><path class="cls-4" d="M13.83,53.9c0-.18-.07-.4-.12-.63-3,.44-3.5.54-3.83.71a15.78,15.78,0,0,0-.55-1.55c.38-.08.7-.41,1.16-1,.18-.21.52-.64.94-1.23a6,6,0,0,0-1.67.32,14.27,14.27,0,0,0-.51-1.45c.29-.09.54-.37.84-.82a17.09,17.09,0,0,0,1.77-3.65l1.53.64a21.89,21.89,0,0,1-2,3.55l1-.08a20.66,20.66,0,0,0,1-1.93l1.46.89a27.09,27.09,0,0,1-3,4.43l1.56-.2c-.11-.4-.24-.8-.36-1.15l1.26-.4a20.42,20.42,0,0,1,.92,3Zm-2.48.78a17.54,17.54,0,0,1-.68,3.8A9.37,9.37,0,0,0,9.29,58a13,13,0,0,0,.62-3.52Zm1.52-.26a29.66,29.66,0,0,1,.4,3.06l-1.35.27a30.11,30.11,0,0,0-.31-3.07ZM14.34,54A20.62,20.62,0,0,1,15,56.22l-1.25.45a15.44,15.44,0,0,0-.64-2.32Zm8.86,2.65v1.61H14.71V56.61h3.35v-2H15.39V53h7.2v1.58H19.85v2Zm-5.34-9.12c-.45.77-.95,1.6-1.43,2.3A16.24,16.24,0,0,1,18,52.17l-1.41.55a15.35,15.35,0,0,0-1.75-2.9,21.66,21.66,0,0,0,1.56-2.69ZM23,46.9H15V45.32h8Zm-4,5.76a15.18,15.18,0,0,0-1.79-2.87,23.5,23.5,0,0,0,1.57-2.63l1.49.34c-.45.76-1,1.59-1.43,2.28a16.76,16.76,0,0,1,1.56,2.3Zm2.62.06a15.09,15.09,0,0,0-2-2.9,23.58,23.58,0,0,0,1.63-2.69l1.51.36c-.46.79-1,1.6-1.48,2.3a15.84,15.84,0,0,1,1.69,2.32Z"/><path class="cls-4" d="M28.81,51.44A7.22,7.22,0,0,1,27.38,53a3.9,3.9,0,0,0-.58-.7,17.75,17.75,0,0,1-1.27,6.22,6.62,6.62,0,0,0-1.5-.83c1.11-2.29,1.2-5.58,1.2-7.93V45.23H37.79v1.59H26.88v3c0,.58,0,1.22-.05,1.9a5.29,5.29,0,0,0,1.35-1.36h-1V49.09h1.62v-.66c-.48,0-.94.08-1.37.1a5,5,0,0,0-.38-1,14,14,0,0,0,3.57-.64l1.07.89a10.08,10.08,0,0,1-1.45.4v.89h1.54v1.24H30.43c.43.26,1.15.71,1.38.87L31,52.27c-.15-.16-.43-.43-.71-.7V53H28.81Zm4.36,5.31H37.8v1.46H26.55V56.75h1.6V54h1.7v2.79h1.6V52.91h.83a5.43,5.43,0,0,0-.89-.95,5.9,5.9,0,0,0,1.72-1.63h-1V49.09h1.71V48.4c-.52.05-1,.08-1.56.11a3.45,3.45,0,0,0-.35-1,17.76,17.76,0,0,0,4-.68l1.08.89a10.94,10.94,0,0,1-1.67.43v.93h2.1v1.24H35.58c.62.38,2,1.29,2.34,1.55L37.14,53c-.39-.38-1.15-1-1.78-1.51V53H33.87V51.23a6.5,6.5,0,0,1-1.38,1.68h.68v1.22h3.37v1.36H33.17Z"/></g><g id="圖層_3" data-name="圖層 3"><g class="cls-5"><g class="cls-5"><g class="cls-6"><polygon class="cls-3" points="77.02 0.15 78.45 94.01 2.16 104.73 0.72 10.88 77.02 0.15"/></g></g><g class="cls-5"><g class="cls-7"><polygon class="cls-3" points="196.67 25.33 198.11 119.18 121.82 129.9 120.38 36.05 196.67 25.33"/></g></g><g class="cls-5"><g class="cls-8"><polygon class="cls-3" points="196.67 25.33 198.11 119.18 78.45 94.01 77.02 0.15 196.67 25.33"/></g></g><g class="cls-5"><g class="cls-9"><polygon class="cls-3" points="198.11 119.18 121.82 129.9 2.16 104.73 78.45 94.01 198.11 119.18"/></g></g><g class="cls-5"><g class="cls-10"><polygon class="cls-3" points="121.82 129.9 2.16 104.73 0.72 10.88 120.38 36.05 121.82 129.9"/></g></g><g class="cls-5"><g class="cls-11"><polygon class="cls-3" points="120.38 36.05 0.72 10.88 77.02 0.15 196.67 25.33 120.38 36.05"/></g></g></g></g></svg>